<?xml version="1.0" encoding="UTF-8" standalone="no"?>
<!-- Created with Inkscape (http://www.inkscape.org/) -->

<svg
   width="210mm"
   height="297mm"
   viewBox="0 0 210 297"
   version="1.1"
   id="svg5"
   inkscape:version="1.1.2 (b8e25be8, 2022-02-05)"
   sodipodi:docname="spiderweb.svg"
   inkscape:export-filename="/Users/ksergi/Desktop/spiderweb.png"
   inkscape:export-xdpi="96"
   inkscape:export-ydpi="96"
   xmlns:inkscape="http://www.inkscape.org/namespaces/inkscape"
   xmlns:sodipodi="http://sodipodi.sourceforge.net/DTD/sodipodi-0.dtd"
   xmlns="http://www.w3.org/2000/svg"
   xmlns:svg="http://www.w3.org/2000/svg">
  <sodipodi:namedview
     id="namedview7"
     pagecolor="#ffffff"
     bordercolor="#666666"
     borderopacity="1.0"
     inkscape:pageshadow="2"
     inkscape:pageopacity="0.0"
     inkscape:pagecheckerboard="0"
     inkscape:document-units="mm"
     showgrid="false"
     inkscape:zoom="0.39000803"
     inkscape:cx="379.47937"
     inkscape:cy="489.73351"
     inkscape:window-width="1390"
     inkscape:window-height="618"
     inkscape:window-x="0"
     inkscape:window-y="25"
     inkscape:window-maximized="0"
     inkscape:current-layer="layer1" />
  <defs
     id="defs2">
    <inkscape:path-effect
       effect="envelope"
       id="path-effect1868"
       is_visible="true"
       lpeversion="1"
       yy="true"
       xx="true"
       bendpath1="m 156.00195,336.00977 c 83.76502,74.25874 159.16091,37.17397 242.92593,0 106.17983,65.3445 183.80421,45.47843 241.96078,0"
       bendpath2="m 640.88866,336.00977 c 0,80.48642 -89.99937,128.2458 0,241.45926 -34.29471,46.84776 -28.83979,133.44517 0,243.42744"
       bendpath3="M 156.00195,820.89647 H 640.88866"
       bendpath4="m 156.00195,336.00977 v 484.8867"
       bendpath1-nodetypes="ccc"
       bendpath2-nodetypes="ccc" />
    <inkscape:path-effect
       effect="spiro"
       id="path-effect1561"
       is_visible="true"
       lpeversion="1" />
    <inkscape:path-effect
       effect="copy_rotate"
       starting_point="0,0"
       origin="0,0"
       id="path-effect1444"
       is_visible="true"
       lpeversion="1"
       method="normal"
       num_copies="5"
       starting_angle="0"
       rotation_angle="0"
       gap="-0.64"
       copies_to_360="true"
       mirror_copies="false"
       split_items="false" />
    <inkscape:path-effect
       effect="spiro"
       id="path-effect1115"
       is_visible="true"
       lpeversion="1" />
    <inkscape:path-effect
       effect="spiro"
       id="path-effect1115-7"
       is_visible="true"
       lpeversion="1" />
  </defs>
  <g
     inkscape:label="Layer 1"
     inkscape:groupmode="layer"
     id="layer1">
    <path
       id="path1559"
       style="color:#000000;fill:#000000;stroke-width:3.77953;-inkscape-stroke:none"
       d="m 394.66602,333.68945 c -16.49472,29.30005 -35.57,53.70415 -60.76172,67.27344 -25.64005,13.81077 -57.84571,16.83464 -101.77344,1.94727 l -5.875,-1.98828 1.91211,12.5996 c 5.77224,39.26547 5.33222,73.04506 -2.80664,99.65235 -8.58069,28.05169 -25.37992,48.20598 -53.14258,59.66797 l -4.43945,1.83398 7.89062,7.56055 c 34.18172,23.1291 55.99273,47.15023 65.05274,71.74023 9.41847,25.56291 5.59222,51.99839 -12.97657,80.60352 l -4.6582,7.17383 8.03125,-1.32032 12.45898,-1.76562 c 56.40521,-6.63465 107.80402,7.22801 151.0879,71.06836 l 7.55859,1.1875 c 24.17712,-37.0561 49.93611,-55.24292 76.86719,-62.65039 27.00465,-7.42772 55.51751,-3.9535 84.86328,3.47656 l 3.26758,0.82617 -0.32618,-11.01367 c -9.23055,-32.34728 -10.69606,-62.40843 -1.20703,-89.52734 9.05625,-25.88201 28.15073,-49.35217 60.83008,-69.79883 l 12.875,-7.56055 4.32031,-2.40234 -6.58398,-3.16602 c -40.63038,-19.49745 -58.02986,-42.59126 -66.38477,-67.68554 -8.35494,-25.09429 -7.33504,-52.5464 -9.73047,-79.99805 L 561,421.24414 553.98047,417.57227 C 483.59013,409.35782 447.24828,367.50354 402.22461,331.82812 Z m 7.55859,7.9668 c 41.17219,33.42433 78.49634,72.76312 145.17578,82.49609 l -23.01562,23.01563 -0.18165,-2.08399 -3.12304,-0.31054 c -62.00861,-6.10175 -81.05541,-21.56121 -118.85547,-51.36719 z m -7.55859,6.67187 v 44.8125 c -14.30939,25.70547 -26.70967,45.79479 -44.05664,56.20313 -17.09961,10.25991 -39.6286,11.92066 -76.08594,-0.1543 l -37.07617,-37.07617 c 41.43334,12.40752 74.10964,9.47759 100.04492,-4.49219 23.70161,-12.76664 41.75306,-34.1385 57.17383,-59.29297 z m 7.55859,54.61524 c 34.24333,26.85319 57.28822,42.57452 114.78906,48.79883 0.0604,0.87796 0.10455,1.76173 0.15235,2.64453 l -35.14258,35.14258 c -36.42745,-4.62242 -56.28531,-25.47292 -79.79883,-44.73242 z m -7.55859,5.17383 v 30.64258 l -0.61329,-0.48243 -2.15625,3.875 c -9.37364,16.84177 -20.13991,30.71328 -34.22265,38.29883 -12.56292,6.76691 -27.96755,8.84684 -48.57422,3.31445 l -23.82617,-23.82617 c 30.38427,7.98209 52.30066,6.04043 69.22656,-4.11523 16.57021,-9.94229 28.26458,-27.08201 40.16602,-47.70703 z m -157.87696,14.02539 31.19336,31.19336 c 5.72126,35.59206 6.39776,61.30252 0.084,80.05664 -6.3439,18.84359 -19.44529,31.26426 -43.31055,41.11719 l -0.40234,0.16601 h -39.59571 c 23.94665,-12.85824 39.80205,-33.04211 47.83008,-59.28711 7.91542,-25.8768 8.65942,-57.41068 4.20117,-93.24609 z m 317.10938,6.20312 c 1.73813,24.90917 1.44077,50.71513 9.67968,75.46094 8.47495,25.4547 26.99851,49.28158 64.73047,68.88867 -1.10508,0.65282 -2.15498,1.32051 -3.23437,1.98047 h -47.24805 c -32.69318,-16.29339 -44.61537,-35.69112 -49.4375,-56.97656 -4.30876,-19.01956 -2.49943,-39.76726 -3.34961,-60.49414 z m -159.23242,23.40625 v 29.45117 l -1.75,3.14454 c -6.38007,11.46323 -13.65213,20.76622 -23.00977,25.80664 -8.28525,4.46277 -18.39849,5.90553 -32.15039,2.26758 l -19.30274,-19.30274 c 16.90057,2.61724 31.07592,0.3021 42.8086,-6.01758 14.09205,-7.59055 24.4754,-20.52831 33.4043,-35.34961 z m 7.55859,2.97071 c 20.27938,17.01377 40.55964,35.44804 73.33203,41.27343 l -20.1875,20.1875 c -24.02788,-3.23737 -37.26752,-16.95434 -53.14453,-30.00586 z m -125.38086,7.47461 18.87695,18.87695 0.73633,4.55078 c 3.81996,23.62832 3.75853,43.77841 -0.98242,59.27734 -4.07503,13.32198 -11.37912,23.23913 -23.05469,29.77344 H 241.0332 c 17.17647,-9.62999 28.54446,-22.06671 34.20118,-38.86914 6.32922,-18.8 5.97378,-42.69233 1.60937,-73.60937 z m 240.64453,2.55859 c 0.27158,17.8892 -0.58451,36.46958 3.52539,54.61133 4.56763,20.16212 16.44257,39.35826 42.25195,55.30859 h -34.27734 c -21.41904,-10.69056 -30.49473,-23.0074 -34.97656,-36.46875 -4.57161,-13.73098 -4.07733,-29.00336 -5.41016,-44.56445 z m -213.10351,25.22461 c 0.11202,0.0324 0.22021,0.0578 0.33203,0.0898 l 22.13086,22.13086 0.44336,2.73828 c 2.60426,16.10865 2.52854,29.77568 -0.64258,40.14258 -2.69374,8.80631 -7.39507,15.26725 -14.99024,19.59375 h -26.75195 c 8.42181,-7.13061 14.38712,-16.42575 17.79492,-27.5664 4.83362,-15.80195 4.70845,-35.29197 1.6836,-57.12891 z m 90.28125,5.52148 v 26.02149 l -0.82032,1.46875 c -3.63817,6.5368 -7.70461,11.66966 -12.73437,14.3789 -4.37036,2.35403 -9.65071,3.19842 -17.11133,1.29493 l -17.21094,-17.21094 c 10.34618,1.0507 19.24063,-0.62192 26.70508,-4.64258 8.81647,-4.74889 15.459,-12.46367 21.17188,-21.31055 z M 402.22461,496 c 12.88871,10.82034 26.36711,22.14762 46.92969,26.39844 l -18.18555,18.18554 c -12.70089,-1.95289 -19.89118,-9.17574 -28.74414,-16.50586 z m 79.25195,4.76758 c 0.76406,13.02562 0.94972,26.58552 5.35938,39.83008 4.10107,12.31765 12.49157,23.99917 27.71289,34.07812 h -26.2461 c -14.29974,-7.193 -20.18359,-15.29234 -23.15429,-24.21484 -2.99562,-8.99747 -2.74441,-19.17514 -3.61133,-29.75196 z m -146.08203,19.98047 19.96289,19.96289 0.17578,1.08984 c 1.49077,9.2211 1.40903,16.9451 -0.32422,22.61133 -1.426,4.66187 -3.75184,7.9688 -7.60156,10.26367 h -24.04883 c 4.77254,-4.73671 8.24763,-10.59213 10.32422,-17.38086 3.14765,-10.29016 3.16841,-22.76749 1.51172,-36.54687 z m 118.98242,7.11914 c 0.42426,8.11318 0.79592,16.57514 3.59571,24.98437 2.5976,7.80205 7.72997,15.26124 16.48046,21.82422 h -23.41796 c -7.76956,-3.9791 -10.73478,-8.22022 -12.32227,-12.98828 -1.56043,-4.68679 -1.51709,-10.20487 -1.96875,-16.1875 z m -52.15234,6.01172 c 6.23595,5.14257 13.15037,10.20905 22.66406,12.78515 l -22.66406,22.66406 z m -7.55859,1.21875 v 34.23437 L 372.0332,546.69922 c 4.75235,0.10152 9.033,-0.72204 12.66016,-2.67578 4.00876,-2.15925 7.20148,-5.31038 9.97266,-8.92578 z m -30.93164,13.99023 25.58789,25.58789 h -31.33985 c 1.97468,-2.33341 3.51794,-4.99935 4.45313,-8.05664 1.57131,-5.13689 1.78659,-11.09439 1.29883,-17.53125 z m 65.82812,3.5957 c 0.23892,3.66385 0.67334,7.48038 1.97461,11.38868 1.25046,3.75576 3.80192,7.31895 7.44531,10.60351 h -31.41211 z m -241.14453,29.55274 h 37.30469 c 30.03278,20.0005 46.83996,39.86477 52.53711,60.15039 5.68913,20.25713 0.66794,41.53735 -14.4961,65.40234 l -24.0039,24.00391 c -0.72492,0.0919 -1.44805,0.171 -2.17383,0.26953 15.99111,-27.72204 19.72304,-54.94045 10.23242,-80.69922 -9.00002,-24.42719 -29.33407,-47.32717 -59.40039,-69.12695 z m 50.09765,0 h 24.10547 l 3.10547,2.0332 c 20.51136,13.45013 33.31867,27.36521 38.4668,41.33789 5.14812,13.97269 3.12964,28.26127 -7.17578,44.13672 l -4.6582,7.17578 2.7207,-0.44726 -14.21094,14.21093 c 7.22603,-17.35373 9.22078,-34.13772 4.66992,-50.34179 -5.74208,-20.44564 -21.50568,-39.52255 -47.02344,-58.10547 z m 37.2461,0 h 29.12695 l 1.82813,1.19922 c 13.95236,9.1491 22.53916,18.55105 25.9414,27.78515 3.40224,9.23411 2.12039,18.56138 -4.80664,29.23242 l -4.6582,7.17579 0.875,-0.14453 -14.91992,14.91992 c 5.87212,-13.44634 6.79656,-26.76801 2.13867,-39.41016 -5.37734,-14.59476 -17.66914,-28.03699 -35.52539,-40.75781 z m 41.52344,0 h 26.3164 l 0.66797,0.4375 c 7.9447,5.20962 12.65783,10.47526 14.46094,15.36914 1.80311,4.89388 1.19786,9.67983 -2.63477,15.58398 l -3.39648,5.22657 -12.54492,12.54492 c 2.3309,-7.75525 2.29935,-15.45296 -0.4043,-22.79102 -3.51039,-9.52762 -11.567,-18.16665 -22.46484,-26.37109 z m 38.3457,0 h 33.68555 l -22.65821,22.6582 c 0.46714,-3.21444 0.29639,-6.3949 -0.83398,-9.46289 -1.77277,-4.81152 -5.43468,-9.12385 -10.19336,-13.19531 z m 51.94141,0 h 32.22851 c -4.43192,3.84565 -7.72642,8.08477 -9.38476,12.82422 -0.97061,2.7739 -1.40293,5.63899 -1.4629,8.55859 z m 44.32421,0 h 24.3125 c -10.11742,7.53981 -16.83022,16.15459 -20.16992,25.69922 -2.28027,6.51684 -2.87215,13.37316 -2.33984,20.42968 l -16.87695,-16.87695 c -0.916,-5.10079 -0.73439,-9.73962 0.73242,-13.93164 1.95331,-5.58247 6.21988,-10.69942 14.34179,-15.32031 z m 37.78907,0 h 27.43554 C 500.12516,593.77054 489.20415,607.10942 484,621.98242 c -3.69522,10.56065 -4.55876,21.74279 -3.35547,33.32813 L 461.95898,636.625 c -1.81513,-9.4652 -1.58106,-18.21604 1.21094,-26.19531 3.65729,-10.45234 11.73011,-19.92027 26.51563,-28.19336 z m 41.26562,0 h 35.09571 c -27.48842,16.49989 -43.78664,31.6264 -50.82813,49.45508 -6.72856,17.03633 -4.87504,36.04141 1.45703,59.64843 l -27.25976,-27.25976 c -2.79954,-14.22817 -2.51963,-27.47747 1.72265,-39.60156 5.51686,-15.76679 17.7468,-29.97581 39.78125,-42.22461 z m 49.83008,0 h 32.69336 c -28.28566,19.72725 -46.18357,42.32388 -54.92383,67.30273 -8.89275,25.41472 -8.44588,52.99496 -1.79297,81.88477 l -29.24023,-29.24024 -0.0371,-0.12109 c -9.12408,-29.4926 -12.15765,-50.04656 -5.22656,-67.5957 6.93108,-17.54914 24.29492,-33.20058 58.04297,-51.96094 z m -186.11523,5.34375 v 36.00976 c -7.23784,-7.59908 -15.54085,-11.1121 -24.14649,-11.86328 z m 7.55859,0 25.77734,25.77734 c -4.61604,-0.65604 -9.28769,-0.80485 -13.97461,0.48438 -4.12624,1.13494 -8.06698,3.55996 -11.80273,7.04687 z m -33.97656,31.0918 c 9.60468,0.0451 17.96954,3.79833 25.75976,15.46874 l 0.65821,0.98633 v 27.93946 c -14.67796,-18.46586 -32.19719,-25.07675 -50.48047,-25.00586 l 19.11523,-19.11524 c 1.68618,-0.18167 3.33418,-0.28101 4.94727,-0.27343 z m 54.03515,1.63476 c 3.59747,-0.0244 7.39712,0.61291 11.39453,1.625 l 3.87891,0.98047 18.1582,18.1582 c 0.0993,0.42889 0.19599,0.8574 0.30078,1.28711 -9.99911,-2.07553 -20.09294,-3.11993 -30.0371,-0.38476 -8.30366,2.28395 -16.28817,7.19469 -23.75391,15.18554 v -25.78515 c 4.54777,-6.07221 9.09947,-8.9519 13.80469,-10.2461 2.01068,-0.55304 4.09542,-0.8057 6.2539,-0.82031 z m -75.72265,24.67969 c 17.26403,0.20208 32.72572,7.11608 46.51757,27.77734 l 1.5879,2.37891 v 30.78711 c -22.75589,-30.96729 -50.4155,-40.28404 -79.37696,-38.97266 l 21.42383,-21.42383 c 3.34498,-0.38341 6.62878,-0.58455 9.84766,-0.54687 z m 92.86914,2.75976 c 6.52442,-0.0492 13.31285,1.10421 20.32226,2.87891 l 6.52539,1.64648 -0.28711,-0.92578 16.75391,16.75391 c 0.40449,1.83082 0.84184,3.66593 1.33008,5.51172 -15.0915,-3.32599 -30.24393,-5.0002 -45.04297,-0.92969 -12.89205,3.546 -25.27189,11.46584 -36.80664,24.89258 v -28.9375 c 8.3022,-11.32869 16.86453,-16.93135 25.75586,-19.37695 3.71496,-1.02181 7.53457,-1.48417 11.44922,-1.51368 z M 322.88086,673.7168 c 25.6252,0.37217 48.83344,10.73371 69.17773,41.21093 l 2.60743,3.91602 v 13.27734 c -18.20945,-23.04302 -37.07539,-32.50411 -56.90821,-34.12695 -19.16867,-1.56845 -39.20094,3.20291 -60.84375,7.33789 l 30.77149,-30.77148 c 5.15328,-0.60666 10.22083,-0.916 15.19531,-0.84375 z m 135.26758,3.98047 c 9.71661,-0.0762 19.76273,1.64269 30.06054,4.25 l 6.5254,1.65234 -1.57422,-5.08399 17.55859,17.5586 c -19.15423,-4.79315 -36.4168,-8.33097 -53.15234,-5.1211 -18.75586,3.59742 -36.48869,16.0983 -55.3418,42.34961 V 709.3125 c 12.39114,-17.06 25.34038,-25.6398 38.80664,-29.34375 5.57565,-1.5336 11.28722,-2.22574 17.11719,-2.27148 z m 11.42187,19.59375 c 15.10666,-0.31772 31.73359,4.05104 51.41407,9.04882 l 36.18945,36.18946 c -27.03239,-6.13439 -53.97263,-8.72446 -80.08203,-1.54297 -26.41745,7.26621 -51.64928,24.88277 -74.86719,57.15039 v -51.90234 l 0.0664,-0.10157 c 20.66282,-31.76938 38.26189,-44.2254 56.69921,-47.76172 3.457,-0.66305 6.97638,-1.00428 10.58008,-1.08007 z m -140.25586,7.98046 c 2.65053,-0.0305 5.26068,0.0494 7.83203,0.25977 20.1125,1.64571 38.30178,10.75305 57.51954,38.74609 V 797.1543 C 353.53108,741.90552 303.96953,726.68008 251.65625,730.58984 l 15.75977,-15.75976 c 23.20464,-3.85997 43.54035,-9.34705 61.89843,-9.5586 z"
       transform="scale(0.26458333)"
       sodipodi:nodetypes="cscccscccsccccccscccsccccsscccccccccccccsccscccccccccccsccscccssccsccccccscccccsccscccccccccsccscccccsccccccsccsccccsccscccscccsccsccccssccsccsccscccccccccscccssccscccccccccsccccsscccsccccsscccsccccscccsccccscccccccccccsccccccsccccccsccccccccscccccccccccscccccsscsccsccssssccccsscccccsccssscscsccssscccsccsssccscccssssccccsccc" />
  </g>
</svg>
